<svg width="386.60498046875px" height="121.426220703125px" xmlns="http://www.w3.org/2000/svg" viewBox="56.697509765625 14.286889648437501 386.60498046875 121.426220703125" style="background: rgba(0, 0, 0, 0);" preserveAspectRatio="xMidYMid"><defs><filter id="editing-extrude-glow"><feFlood flood-color="#333333" result="flood-1"></feFlood><feMorphology operator="erode" radius="1" in="SourceAlpha" result="erode"></feMorphology><feComposite operator="in" in="flood-1" in2="erode" result="comp1"></feComposite><feConvolveMatrix order="3,3" divisor="1" in="comp1" result="convolve" kernelMatrix="0 0 0 1 1 1 0 0 0"></feConvolveMatrix><feOffset dx="-3" dy="0" in="convolve" result="extrude"></feOffset><feComposite operator="in" in="flood-1" in2="extrude" result="comp-extrude"></feComposite><feFlood flood-color="#000000" result="flood-2"></feFlood><feComposite operator="in" in="flood-2" in2="SourceAlpha" result="comp2"></feComposite><feMorphology operator="dilate" radius="1" in="comp2" result="dilate"></feMorphology><feOffset dx="-4.5" dy="0" in="dilate" result="offset"></feOffset><feGaussianBlur in="offset" stdDeviation="5.8" result="blur"></feGaussianBlur><feComponentTransfer in="blur" result="shadow"><feFuncA type="linear" slope="0.8" intercept="-0.2"></feFuncA></feComponentTransfer><feMerge><feMergeNode in="shadow"></feMergeNode><feMergeNode in="comp-extrude"></feMergeNode><feMergeNode in="SourceGraphic"></feMergeNode></feMerge></filter></defs><g filter="url(#editing-extrude-glow)"><g transform="translate(114.9249883890152, 96.93906211853027)"><path d="M34.50-13.25L34.50-13.25L34.50-13.25Q36.16-12.03 36.16-9.44L36.16-9.44L36.16-9.44Q36.16-6.85 35.04-5.02L35.04-5.02L35.04-5.02Q33.92-3.20 31.74-1.79L31.74-1.79L31.74-1.79Q27.07 1.22 18.91 1.22L18.91 1.22L18.91 1.22Q10.75 1.22 6.30-3.04L6.30-3.04L6.30-3.04Q1.86-7.30 1.86-14.85L1.86-14.85L1.86-14.85Q1.86-25.54 7.42-33.66L7.42-33.66L7.42-33.66Q11.65-39.68 19.20-42.24L19.20-42.24L19.20-42.24Q23.10-43.52 26.94-43.52L26.94-43.52L26.94-43.52Q30.78-43.52 33.15-43.01L33.15-43.01L33.15-43.01Q35.52-42.50 37.31-41.47L37.31-41.47L37.31-41.47Q41.22-39.23 41.22-35.65L41.22-35.65L41.22-35.65Q41.22-32.38 38.14-29.95L38.14-29.95L38.14-29.95Q35.33-27.78 33.02-27.78L33.02-27.78L33.02-27.78Q30.72-27.78 29.76-28.10L29.76-28.10L29.76-28.10Q30.02-30.40 30.02-31.90L30.02-31.90L30.02-31.90Q30.02-33.41 29.95-34.50L29.95-34.50L29.95-34.50Q29.89-35.58 29.57-36.61L29.57-36.61L29.57-36.61Q28.93-38.98 26.98-38.98L26.98-38.98L26.98-38.98Q25.02-38.98 23.07-37.15L23.07-37.15L23.07-37.15Q21.12-35.33 19.46-32.26L19.46-32.26L19.46-32.26Q15.68-25.28 15.68-17.02L15.68-17.02L15.68-17.02Q15.68-13.06 17.92-10.78L17.92-10.78L17.92-10.78Q20.16-8.51 24.96-8.51L24.96-8.51L24.96-8.51Q28.54-8.51 31.94-10.88L31.94-10.88L31.94-10.88Q33.41-11.90 34.50-13.25ZM55.42 1.28L55.42 1.28L55.42 1.28Q41.34 1.28 41.34-11.97L41.34-11.97L41.34-11.97Q41.34-21.38 46.53-27.46L46.53-27.46L46.53-27.46Q52.03-33.92 61.57-33.92L61.57-33.92L61.57-33.92Q68.48-33.92 72-30.72L72-30.72L72-30.72Q75.52-27.52 75.52-20.80L75.52-20.80L75.52-20.80Q75.52-10.56 70.02-4.61L70.02-4.61L70.02-4.61Q64.64 1.28 55.42 1.28ZM57.09-26.56L57.09-26.56L57.09-26.56Q56.32-24.83 55.71-22.24L55.71-22.24L55.71-22.24Q55.10-19.65 54.34-15.55L54.34-15.55L54.34-15.55Q53.57-11.46 53.57-6.40L53.57-6.40L53.57-6.40Q53.57-4.74 54.11-3.65L54.11-3.65L54.11-3.65Q54.66-2.56 56.13-2.56L56.13-2.56L56.13-2.56Q57.60-2.56 58.53-3.26L58.53-3.26L58.53-3.26Q59.46-3.97 60.16-5.63L60.16-5.63L60.16-5.63Q61.44-8.58 62.46-14.05L62.46-14.05L62.46-14.05Q63.49-19.52 63.58-21.89L63.58-21.89L63.58-21.89Q63.68-24.26 63.68-26.02L63.68-26.02L63.68-26.02Q63.68-27.78 63.17-28.93L63.17-28.93L63.17-28.93Q62.66-30.08 61.22-30.08L61.22-30.08L61.22-30.08Q59.78-30.08 58.82-29.18L58.82-29.18L58.82-29.18Q57.86-28.29 57.09-26.56ZM106.37 1.28L106.37 1.28L106.37 1.28Q98.62 1.28 98.62-4.74L98.62-4.74L98.62-4.74Q98.69-6.40 99.20-9.22L99.20-9.22L100.35-15.10L100.35-15.10Q102.08-23.42 102.08-25.28L102.08-25.28L102.08-25.28Q102.08-28.99 99.90-28.99L99.90-28.99L99.90-28.99Q96.26-28.99 94.34-19.46L94.34-19.46L90.56 0L77.70 1.28L84.35-32.70L94.85-33.92L93.82-27.65L93.82-27.65Q96.83-33.92 106.05-33.92L106.05-33.92L106.05-33.92Q110.53-33.92 112.42-32.03L112.42-32.03L112.42-32.03Q114.30-30.14 114.30-25.92L114.30-25.92L114.30-25.92Q114.30-21.95 112.26-12.67L112.26-12.67L112.26-12.67Q111.30-8.51 111.30-6.94L111.30-6.94L111.30-6.94Q111.30-5.38 112.16-4.48L112.16-4.48L112.16-4.48Q113.02-3.58 114.30-3.46L114.30-3.46L114.30-3.46Q113.66-1.28 111.46 0L111.46 0L111.46 0Q109.25 1.28 106.37 1.28ZM120.45-6.40L120.45-6.40L120.45-6.40Q120.45-8.13 121.34-12.48L121.34-12.48L124.74-29.76L120.96-29.76L121.22-31.68L121.22-31.68Q128.90-33.98 136.32-39.62L136.32-39.62L139.39-39.62L137.86-32.64L142.85-32.64L142.27-29.76L137.34-29.76L134.08-12.48L134.08-12.48Q133.25-8.51 133.25-7.17L133.25-7.17L133.25-7.17Q133.25-4.10 135.94-3.46L135.94-3.46L135.94-3.46Q135.30-1.28 132.99 0L132.99 0L132.99 0Q130.69 1.28 127.42 1.28L127.42 1.28L127.42 1.28Q124.16 1.28 122.30-0.77L122.30-0.77L122.30-0.77Q120.45-2.82 120.45-6.40ZM168.19-10.82L168.19-10.82L168.19-10.82Q169.79-9.73 169.79-7.33L169.79-7.33L169.79-7.33Q169.79-4.93 168.58-3.39L168.58-3.39L168.58-3.39Q167.36-1.86 165.38-0.83L165.38-0.83L165.38-0.83Q161.28 1.28 156.86 1.28L156.86 1.28L156.86 1.28Q152.45 1.28 149.86 0.32L149.86 0.32L149.86 0.32Q147.26-0.64 145.54-2.43L145.54-2.43L145.54-2.43Q142.14-5.82 142.14-12.03L142.14-12.03L142.14-12.03Q142.14-21.70 147.39-27.58L147.39-27.58L147.39-27.58Q153.02-33.92 162.82-33.92L162.82-33.92L162.82-33.92Q168.90-33.92 171.90-31.36L171.90-31.36L171.90-31.36Q174.14-29.44 174.14-26.30L174.14-26.30L174.14-26.30Q174.14-15.04 154.69-15.04L154.69-15.04L154.69-15.04Q154.43-13.38 154.43-11.97L154.43-11.97L154.43-11.97Q154.43-9.02 155.74-7.90L155.74-7.90L155.74-7.90Q157.06-6.78 159.49-6.78L159.49-6.78L159.49-6.78Q161.92-6.78 164.51-7.90L164.51-7.90L164.51-7.90Q167.10-9.02 168.19-10.82ZM155.14-17.79L155.14-17.79L155.14-17.79Q159.68-17.79 162.30-20.61L162.30-20.61L162.30-20.61Q164.93-23.30 164.93-27.58L164.93-27.58L164.93-27.58Q164.93-29.06 164.38-29.86L164.38-29.86L164.38-29.86Q163.84-30.66 162.75-30.66L162.75-30.66L162.75-30.66Q161.66-30.66 160.74-30.24L160.74-30.24L160.74-30.24Q159.81-29.82 158.85-28.42L158.85-28.42L158.85-28.42Q156.48-25.22 155.14-17.79ZM203.39 1.28L203.39 1.28L203.39 1.28Q195.65 1.28 195.65-4.74L195.65-4.74L195.65-4.74Q195.71-6.40 196.22-9.22L196.22-9.22L197.38-15.10L197.38-15.10Q199.10-23.42 199.10-25.28L199.10-25.28L199.10-25.28Q199.10-28.99 196.93-28.99L196.93-28.99L196.93-28.99Q193.28-28.99 191.36-19.46L191.36-19.46L187.58 0L174.72 1.28L181.38-32.70L191.87-33.92L190.85-27.65L190.85-27.65Q193.86-33.92 203.07-33.92L203.07-33.92L203.07-33.92Q207.55-33.92 209.44-32.03L209.44-32.03L209.44-32.03Q211.33-30.14 211.33-25.92L211.33-25.92L211.33-25.92Q211.33-21.95 209.28-12.67L209.28-12.67L209.28-12.67Q208.32-8.51 208.32-6.94L208.32-6.94L208.32-6.94Q208.32-5.38 209.18-4.48L209.18-4.48L209.18-4.48Q210.05-3.58 211.33-3.46L211.33-3.46L211.33-3.46Q210.69-1.28 208.48 0L208.48 0L208.48 0Q206.27 1.28 203.39 1.28ZM217.47-6.40L217.47-6.40L217.47-6.40Q217.47-8.13 218.37-12.48L218.37-12.48L221.76-29.76L217.98-29.76L218.24-31.68L218.24-31.68Q225.92-33.98 233.34-39.62L233.34-39.62L236.42-39.62L234.88-32.64L239.87-32.64L239.30-29.76L234.37-29.76L231.10-12.48L231.10-12.48Q230.27-8.51 230.27-7.17L230.27-7.17L230.27-7.17Q230.27-4.10 232.96-3.46L232.96-3.46L232.96-3.46Q232.32-1.28 230.02 0L230.02 0L230.02 0Q227.71 1.28 224.45 1.28L224.45 1.28L224.45 1.28Q221.18 1.28 219.33-0.77L219.33-0.77L219.33-0.77Q217.47-2.82 217.47-6.40ZM258.69-22.46L258.69-22.46L258.69-22.46Q259.58-24.83 259.58-26.88L259.58-26.88L259.58-26.88Q259.58-30.66 256.51-30.66L256.51-30.66L256.51-30.66Q254.91-30.66 253.60-29.22L253.60-29.22L253.60-29.22Q252.29-27.78 252.29-25.98L252.29-25.98L252.29-25.98Q252.29-24.70 253.31-23.68L253.31-23.68L253.31-23.68Q254.78-22.27 258.56-19.97L258.56-19.97L258.56-19.97Q262.34-17.66 263.78-15.78L263.78-15.78L263.78-15.78Q265.22-13.89 265.22-11.30L265.22-11.30L265.22-11.30Q265.22-8.70 263.97-6.34L263.97-6.34L263.97-6.34Q262.72-3.97 260.48-2.30L260.48-2.30L260.48-2.30Q255.68 1.28 248 1.28L248 1.28L248 1.28Q243.84 1.28 240.64-0.90L240.64-0.90L240.64-0.90Q237.44-3.01 237.44-5.50L237.44-5.50L237.44-5.50Q237.44-8 239.26-9.47L239.26-9.47L239.26-9.47Q241.09-10.94 243.78-10.94L243.78-10.94L243.78-10.94Q246.46-10.94 248.13-9.92L248.13-9.92L248.13-9.92Q247.30-7.81 247.30-6.40L247.30-6.40L247.30-6.40Q247.30-2.18 250.88-2.18L250.88-2.18L250.88-2.18Q252.42-2.18 253.44-3.14L253.44-3.14L253.44-3.14Q254.46-4.10 254.46-5.76L254.46-5.76L254.46-5.76Q254.46-9.02 248.96-12.48L248.96-12.48L248.96-12.48Q244.48-15.42 243.46-16.58L243.46-16.58L243.46-16.58Q241.73-18.62 241.73-21.18L241.73-21.18L241.73-21.18Q241.73-23.74 242.94-26.18L242.94-26.18L242.94-26.18Q244.16-28.61 246.40-30.34L246.40-30.34L246.40-30.34Q251.07-33.92 259.20-33.92L259.20-33.92L259.20-33.92Q263.36-33.92 265.82-32.26L265.82-32.26L265.82-32.26Q268.29-30.59 268.29-27.78L268.29-27.78L268.29-27.78Q268.29-24.96 266.59-23.36L266.59-23.36L266.59-23.36Q264.90-21.76 261.82-21.76L261.82-21.76L261.82-21.76Q259.71-21.76 258.69-22.46Z" fill="#eb6c6c"></path></g></g><style>text {
  font-size: 64px;
  font-family: Arial Black;
  dominant-baseline: central;
  text-anchor: middle;
}</style></svg>