<svg width="206.27744140625px" height="121.426220703125px" xmlns="http://www.w3.org/2000/svg" viewBox="146.861279296875 14.286889648437501 206.27744140625 121.426220703125" style="background: rgba(0, 0, 0, 0);" preserveAspectRatio="xMidYMid"><defs><filter id="editing-extrude-glow"><feFlood flood-color="#333333" result="flood-1"></feFlood><feMorphology operator="erode" radius="1" in="SourceAlpha" result="erode"></feMorphology><feComposite operator="in" in="flood-1" in2="erode" result="comp1"></feComposite><feConvolveMatrix order="3,3" divisor="1" in="comp1" result="convolve" kernelMatrix="0 0 0 1 1 1 0 0 0"></feConvolveMatrix><feOffset dx="-3" dy="0" in="convolve" result="extrude"></feOffset><feComposite operator="in" in="flood-1" in2="extrude" result="comp-extrude"></feComposite><feFlood flood-color="#000000" result="flood-2"></feFlood><feComposite operator="in" in="flood-2" in2="SourceAlpha" result="comp2"></feComposite><feMorphology operator="dilate" radius="1" in="comp2" result="dilate"></feMorphology><feOffset dx="-4.5" dy="0" in="dilate" result="offset"></feOffset><feGaussianBlur in="offset" stdDeviation="5.8" result="blur"></feGaussianBlur><feComponentTransfer in="blur" result="shadow"><feFuncA type="linear" slope="0.8" intercept="-0.2"></feFuncA></feComponentTransfer><feMerge><feMergeNode in="shadow"></feMergeNode><feMergeNode in="comp-extrude"></feMergeNode><feMergeNode in="SourceGraphic"></feMergeNode></feMerge></filter></defs><g filter="url(#editing-extrude-glow)"><g transform="translate(183.18499970436096, 98.5390625)"><path d="M42.62-26.56L42.62-26.56L42.62-26.56Q42.62 0.70 13.06 0.70L13.06 0.70L13.06 0.70Q8.32 0.70 0.51-0.45L0.51-0.45L7.68-38.27L7.68-38.27Q8.19-40.83 8.51-42.30L8.51-42.30L8.51-42.30Q18.24-43.01 22.56-43.01L22.56-43.01L22.56-43.01Q26.88-43.01 30.85-42.11L30.85-42.11L30.85-42.11Q34.82-41.22 37.44-39.23L37.44-39.23L37.44-39.23Q42.62-35.33 42.62-26.56ZM29.44-28.93L29.44-28.93L29.44-28.93Q29.44-38.46 22.59-38.46L22.59-38.46L21.95-38.46L21.95-38.46Q21.63-38.46 21.31-38.40L21.31-38.40L14.72-4.03L14.72-4.03Q14.98-3.90 15.23-3.90L15.23-3.90L15.74-3.90L15.74-3.90Q18.11-3.90 20.58-5.38L20.58-5.38L20.58-5.38Q23.04-6.85 24.96-9.86L24.96-9.86L24.96-9.86Q29.44-16.83 29.44-28.93ZM61.25-3.52L61.25-3.52L61.25-3.52Q59.26 1.28 52.93 1.28L52.93 1.28L52.93 1.28Q49.66 1.28 47.62-0.96L47.62-0.96L47.62-0.96Q45.89-2.94 45.89-4.93L45.89-4.93L45.89-4.93Q45.89-10.11 48.26-20.22L48.26-20.22L50.62-32.64L63.62-33.92L59.71-13.70L59.71-13.70Q58.62-8.96 58.62-7.30L58.62-7.30L58.62-7.30Q58.62-3.65 61.25-3.52ZM51.78-41.54L51.78-41.54L51.78-41.54Q51.78-44.03 53.86-45.38L53.86-45.38L53.86-45.38Q55.94-46.72 58.94-46.72L58.94-46.72L58.94-46.72Q61.95-46.72 63.78-45.38L63.78-45.38L63.78-45.38Q65.60-44.03 65.60-41.54L65.60-41.54L65.60-41.54Q65.60-39.04 63.58-37.76L63.58-37.76L63.58-37.76Q61.57-36.48 58.56-36.48L58.56-36.48L58.56-36.48Q55.55-36.48 53.66-37.76L53.66-37.76L53.66-37.76Q51.78-39.04 51.78-41.54ZM85.82-22.46L85.82-22.46L85.82-22.46Q86.72-24.83 86.72-26.88L86.72-26.88L86.72-26.88Q86.72-30.66 83.65-30.66L83.65-30.66L83.65-30.66Q82.05-30.66 80.74-29.22L80.74-29.22L80.74-29.22Q79.42-27.78 79.42-25.98L79.42-25.98L79.42-25.98Q79.42-24.70 80.45-23.68L80.45-23.68L80.45-23.68Q81.92-22.27 85.70-19.97L85.70-19.97L85.70-19.97Q89.47-17.66 90.91-15.78L90.91-15.78L90.91-15.78Q92.35-13.89 92.35-11.30L92.35-11.30L92.35-11.30Q92.35-8.70 91.10-6.34L91.10-6.34L91.10-6.34Q89.86-3.97 87.62-2.30L87.62-2.30L87.62-2.30Q82.82 1.28 75.14 1.28L75.14 1.28L75.14 1.28Q70.98 1.28 67.78-0.90L67.78-0.90L67.78-0.90Q64.58-3.01 64.58-5.50L64.58-5.50L64.58-5.50Q64.58-8 66.40-9.47L66.40-9.47L66.40-9.47Q68.22-10.94 70.91-10.94L70.91-10.94L70.91-10.94Q73.60-10.94 75.26-9.92L75.26-9.92L75.26-9.92Q74.43-7.81 74.43-6.40L74.43-6.40L74.43-6.40Q74.43-2.18 78.02-2.18L78.02-2.18L78.02-2.18Q79.55-2.18 80.58-3.14L80.58-3.14L80.58-3.14Q81.60-4.10 81.60-5.76L81.60-5.76L81.60-5.76Q81.60-9.02 76.10-12.48L76.10-12.48L76.10-12.48Q71.62-15.42 70.59-16.58L70.59-16.58L70.59-16.58Q68.86-18.62 68.86-21.18L68.86-21.18L68.86-21.18Q68.86-23.74 70.08-26.18L70.08-26.18L70.08-26.18Q71.30-28.61 73.54-30.34L73.54-30.34L73.54-30.34Q78.21-33.92 86.34-33.92L86.34-33.92L86.34-33.92Q90.50-33.92 92.96-32.26L92.96-32.26L92.96-32.26Q95.42-30.59 95.42-27.78L95.42-27.78L95.42-27.78Q95.42-24.96 93.73-23.36L93.73-23.36L93.73-23.36Q92.03-21.76 88.96-21.76L88.96-21.76L88.96-21.76Q86.85-21.76 85.82-22.46ZM129.98-7.10L129.98-7.10L129.98-7.10Q129.98-4.29 132.86-3.46L132.86-3.46L132.86-3.46Q132.16-1.09 129.41 0.19L129.41 0.19L129.41 0.19Q127.10 1.28 124.58 1.28L124.58 1.28L124.58 1.28Q122.05 1.28 120.74 0.61L120.74 0.61L120.74 0.61Q119.42-0.06 118.72-1.15L118.72-1.15L118.72-1.15Q117.57-2.82 117.57-5.95L117.57-5.95L117.57-5.95Q117.57-7.81 118.59-12.93L118.59-12.93L119.49-17.79L119.49-17.79Q120.58-23.36 120.58-25.41L120.58-25.41L120.58-25.41Q120.58-28.99 118.59-28.99L118.59-28.99L118.59-28.99Q116.10-28.99 114.50-25.34L114.50-25.34L114.50-25.34Q113.86-23.94 113.41-21.82L113.41-21.82L109.06 0L96.19 1.28L105.22-44.80L118.08-46.08L117.57-43.52L117.57-43.52Q115.78-33.66 114.24-30.34L114.24-30.34L114.24-30.34Q117.82-33.92 124.42-33.92L124.42-33.92L124.42-33.92Q131.39-33.92 132.67-29.31L132.67-29.31L132.67-29.31Q133.12-27.84 133.12-26.56L133.12-26.56L133.12-26.56Q133.12-25.28 133.02-24.29L133.02-24.29L133.02-24.29Q132.93-23.30 132.61-21.50L132.61-21.50L131.78-16.90L130.30-9.66L130.30-9.66Q129.98-8.19 129.98-7.10Z" fill="#eb6c6c"></path></g></g><style>text {
  font-size: 64px;
  font-family: Arial Black;
  dominant-baseline: central;
  text-anchor: middle;
}</style></svg>