<svg width="587.33251953125px" height="121.426220703125px" xmlns="http://www.w3.org/2000/svg" viewBox="-43.666259765625 14.286889648437501 587.33251953125 121.426220703125" style="background: rgba(0, 0, 0, 0);" preserveAspectRatio="xMidYMid"><defs><filter id="editing-extrude-glow"><feFlood flood-color="#333333" result="flood-1"></feFlood><feMorphology operator="erode" radius="1" in="SourceAlpha" result="erode"></feMorphology><feComposite operator="in" in="flood-1" in2="erode" result="comp1"></feComposite><feConvolveMatrix order="3,3" divisor="1" in="comp1" result="convolve" kernelMatrix="0 0 0 1 1 1 0 0 0"></feConvolveMatrix><feOffset dx="-3" dy="0" in="convolve" result="extrude"></feOffset><feComposite operator="in" in="flood-1" in2="extrude" result="comp-extrude"></feComposite><feFlood flood-color="#000000" result="flood-2"></feFlood><feComposite operator="in" in="flood-2" in2="SourceAlpha" result="comp2"></feComposite><feMorphology operator="dilate" radius="1" in="comp2" result="dilate"></feMorphology><feOffset dx="-4.5" dy="0" in="dilate" result="offset"></feOffset><feGaussianBlur in="offset" stdDeviation="5.8" result="blur"></feGaussianBlur><feComponentTransfer in="blur" result="shadow"><feFuncA type="linear" slope="0.8" intercept="-0.2"></feFuncA></feComponentTransfer><feMerge><feMergeNode in="shadow"></feMergeNode><feMergeNode in="comp-extrude"></feMergeNode><feMergeNode in="SourceGraphic"></feMergeNode></feMerge></filter></defs><g filter="url(#editing-extrude-glow)"><g transform="translate(42.0650072991848, 98.5390625)"><path d="M24.96-4.80L24.96-4.80L24.96-4.80Q24.96-9.28 26.75-18.24L26.75-18.24L17.28-18.24L13.76 0L0.38 0L8.51-42.24L22.02-42.24L18.30-23.36L27.78-23.36L31.30-42.24L44.80-42.24L44.80-42.24Q43.90-37.50 42.75-32.19L42.75-32.19L40.58-21.76L40.58-21.76Q38.14-9.60 38.14-4.29L38.14-4.29L38.14-4.29Q38.14-2.11 38.85-0.90L38.85-0.90L38.85-0.90Q35.65 1.28 31.90 1.28L31.90 1.28L31.90 1.28Q28.16 1.28 26.56-0.51L26.56-0.51L26.56-0.51Q24.96-2.30 24.96-4.80ZM60.29 1.28L60.29 1.28L60.29 1.28Q46.21 1.28 46.21-11.97L46.21-11.97L46.21-11.97Q46.21-21.38 51.39-27.46L51.39-27.46L51.39-27.46Q56.90-33.92 66.43-33.92L66.43-33.92L66.43-33.92Q73.34-33.92 76.86-30.72L76.86-30.72L76.86-30.72Q80.38-27.52 80.38-20.80L80.38-20.80L80.38-20.80Q80.38-10.56 74.88-4.61L74.88-4.61L74.88-4.61Q69.50 1.28 60.29 1.28ZM61.95-26.56L61.95-26.56L61.95-26.56Q61.18-24.83 60.58-22.24L60.58-22.24L60.58-22.24Q59.97-19.65 59.20-15.55L59.20-15.55L59.20-15.55Q58.43-11.46 58.43-6.40L58.43-6.40L58.43-6.40Q58.43-4.74 58.98-3.65L58.98-3.65L58.98-3.65Q59.52-2.56 60.99-2.56L60.99-2.56L60.99-2.56Q62.46-2.56 63.39-3.26L63.39-3.26L63.39-3.26Q64.32-3.97 65.02-5.63L65.02-5.63L65.02-5.63Q66.30-8.58 67.33-14.05L67.33-14.05L67.33-14.05Q68.35-19.52 68.45-21.89L68.45-21.89L68.45-21.89Q68.54-24.26 68.54-26.02L68.54-26.02L68.54-26.02Q68.54-27.78 68.03-28.93L68.03-28.93L68.03-28.93Q67.52-30.08 66.08-30.08L66.08-30.08L66.08-30.08Q64.64-30.08 63.68-29.18L63.68-29.18L63.68-29.18Q62.72-28.29 61.95-26.56ZM131.90-10.69L131.90-10.69Q127.68-4.86 123.62-1.79L123.62-1.79L123.62-1.79Q119.55 1.28 115.36 1.28L115.36 1.28L115.36 1.28Q111.17 1.28 109.70 0.45L109.70 0.45L109.70-13.63L109.70-13.63Q106.05-3.90 99.52-0.13L99.52-0.13L99.52-0.13Q97.15 1.28 94.91 1.28L94.91 1.28L94.91 1.28Q90.62 1.28 88.77 0.45L88.77 0.45L88.77 0.45Q88.32-14.21 87.94-18.27L87.94-18.27L87.94-18.27Q87.55-22.34 87.23-24.83L87.23-24.83L87.23-24.83Q86.59-29.82 84.42-31.87L84.42-31.87L84.42-31.87Q87.17-33.92 91.01-33.92L91.01-33.92L91.01-33.92Q98.43-33.92 99.46-24.70L99.46-24.70L99.46-24.70Q99.71-22.53 99.71-20.22L99.71-20.22L99.71-20.22Q99.71-16.77 98.94-4.74L98.94-4.74L98.94-4.74Q100.48-5.44 102.11-7.97L102.11-7.97L102.11-7.97Q103.74-10.50 105.09-13.95L105.09-13.95L105.09-13.95Q108.10-21.95 108.10-28.86L108.10-28.86L108.10-28.86Q108.10-29.95 107.81-31.10L107.81-31.10L107.81-31.10Q107.52-32.26 107.20-32.58L107.20-32.58L107.20-32.58Q109.44-33.92 112.86-33.92L112.86-33.92L112.86-33.92Q116.29-33.92 117.92-31.58L117.92-31.58L117.92-31.58Q119.55-29.25 120-24.96L120-24.96L120-24.96Q120.51-19.52 120.51-16.26L120.51-16.26L120.51-16.26Q120.51-11.71 120.06-4.99L120.06-4.99L120.06-4.99Q123.26-7.30 125.89-14.85L125.89-14.85L125.89-14.85Q128.51-22.40 128.51-27.78L128.51-27.78L128.51-27.78Q128.51-30.14 128.13-31.55L128.13-31.55L128.13-31.55Q130.24-33.92 133.89-33.92L133.89-33.92L133.89-33.92Q136.13-33.92 137.76-32.70L137.76-32.70L137.76-32.70Q139.39-31.49 139.39-29.22L139.39-29.22L139.39-29.22Q139.39-26.94 138.72-24.51L138.72-24.51L138.72-24.51Q138.05-22.08 136.96-19.58L136.96-19.58L136.96-19.58Q134.85-14.59 131.90-10.69L131.90-10.69ZM143.49-10.37L143.49-10.37L143.49-10.37Q141.44-11.84 141.44-14.66L141.44-14.66L141.44-14.66Q141.44-16.19 142.21-17.44L142.21-17.44L142.21-17.44Q142.98-18.69 144.51-18.88L144.51-18.88L157.12-18.88L157.12-18.88Q159.23-18.88 159.87-20.16L159.87-20.16L159.87-20.16Q160.90-19.58 161.34-18.37L161.34-18.37L161.34-18.37Q161.79-17.15 161.79-15.87L161.79-15.87L161.79-15.87Q161.79-14.59 160.80-13.34L160.80-13.34L160.80-13.34Q159.81-12.10 158.34-11.97L158.34-11.97L146.62-11.97L146.62-11.97Q145.28-11.97 144.64-11.55L144.64-11.55L144.64-11.55Q144-11.14 143.49-10.37ZM171.33-31.17L171.33-31.17L171.33-31.17Q169.15-32.83 169.15-36.38L169.15-36.38L169.15-36.38Q169.15-39.94 171.49-41.79L171.49-41.79L171.49-41.79Q173.82-43.65 177.86-43.65L177.86-43.65L177.86-43.65Q180.42-43.65 186.50-42.75L186.50-42.75L190.85-42.11L190.85-42.11Q193.02-41.86 195.30-41.86L195.30-41.86L195.30-41.86Q197.57-41.86 199.10-42.82L199.10-42.82L199.10-42.82Q201.41-40.77 201.41-37.82L201.41-37.82L201.41-37.82Q201.41-34.88 198.78-32.77L198.78-32.77L198.78-32.77Q196.10-30.53 192.64-30.53L192.64-30.53L192.64-30.53Q190.98-30.53 188.29-30.98L188.29-30.98L188.29-30.98Q185.15-21.12 185.15-14.27L185.15-14.27L185.15-14.27Q185.15-7.42 188.61-3.84L188.61-3.84L188.61-3.84Q187.01-0.96 184.64 0.16L184.64 0.16L184.64 0.16Q182.27 1.28 178.72 1.28L178.72 1.28L178.72 1.28Q175.17 1.28 172.96-0.67L172.96-0.67L172.96-0.67Q170.75-2.62 170.75-6.66L170.75-6.66L170.75-6.66Q170.75-11.33 173.31-19.01L173.31-19.01L173.31-19.01Q175.87-26.62 179.71-32.45L179.71-32.45L179.71-32.45Q177.86-32.64 175.94-32.64L175.94-32.64L175.94-32.64Q171.97-32.64 171.33-31.17ZM210.37 1.28L210.37 1.28L210.37 1.28Q196.29 1.28 196.29-11.97L196.29-11.97L196.29-11.97Q196.29-21.38 201.47-27.46L201.47-27.46L201.47-27.46Q206.98-33.92 216.51-33.92L216.51-33.92L216.51-33.92Q223.42-33.92 226.94-30.72L226.94-30.72L226.94-30.72Q230.46-27.52 230.46-20.80L230.46-20.80L230.46-20.80Q230.46-10.56 224.96-4.61L224.96-4.61L224.96-4.61Q219.58 1.28 210.37 1.28ZM212.03-26.56L212.03-26.56L212.03-26.56Q211.26-24.83 210.66-22.24L210.66-22.24L210.66-22.24Q210.05-19.65 209.28-15.55L209.28-15.55L209.28-15.55Q208.51-11.46 208.51-6.40L208.51-6.40L208.51-6.40Q208.51-4.74 209.06-3.65L209.06-3.65L209.06-3.65Q209.60-2.56 211.07-2.56L211.07-2.56L211.07-2.56Q212.54-2.56 213.47-3.26L213.47-3.26L213.47-3.26Q214.40-3.97 215.10-5.63L215.10-5.63L215.10-5.63Q216.38-8.58 217.41-14.05L217.41-14.05L217.41-14.05Q218.43-19.52 218.53-21.89L218.53-21.89L218.53-21.89Q218.62-24.26 218.62-26.02L218.62-26.02L218.62-26.02Q218.62-27.78 218.11-28.93L218.11-28.93L218.11-28.93Q217.60-30.08 216.16-30.08L216.16-30.08L216.16-30.08Q214.72-30.08 213.76-29.18L213.76-29.18L213.76-29.18Q212.80-28.29 212.03-26.56ZM249.02-39.68L249.02-39.68L249.02-39.68Q250.88-43.52 256.03-43.52L256.03-43.52L256.03-43.52Q261.18-43.52 263.58-40.54L263.58-40.54L263.58-40.54Q265.98-37.57 265.98-30.72L265.98-30.72L265.98-7.87L281.54-42.18L289.15-42.18L269.25 0L254.27 0L252.35-30.72L252.35-30.72Q252.16-34.11 251.23-36.42L251.23-36.42L251.23-36.42Q250.30-38.72 249.02-39.68ZM301.95-3.52L301.95-3.52L301.95-3.52Q299.97 1.28 293.63 1.28L293.63 1.28L293.63 1.28Q290.37 1.28 288.32-0.96L288.32-0.96L288.32-0.96Q286.59-2.94 286.59-4.93L286.59-4.93L286.59-4.93Q286.59-10.11 288.96-20.22L288.96-20.22L291.33-32.64L304.32-33.92L300.42-13.70L300.42-13.70Q299.33-8.96 299.33-7.30L299.33-7.30L299.33-7.30Q299.33-3.65 301.95-3.52ZM292.48-41.54L292.48-41.54L292.48-41.54Q292.48-44.03 294.56-45.38L294.56-45.38L294.56-45.38Q296.64-46.72 299.65-46.72L299.65-46.72L299.65-46.72Q302.66-46.72 304.48-45.38L304.48-45.38L304.48-45.38Q306.30-44.03 306.30-41.54L306.30-41.54L306.30-41.54Q306.30-39.04 304.29-37.76L304.29-37.76L304.29-37.76Q302.27-36.48 299.26-36.48L299.26-36.48L299.26-36.48Q296.26-36.48 294.37-37.76L294.37-37.76L294.37-37.76Q292.48-39.04 292.48-41.54ZM327.55-33.92L327.55-33.92L327.55-33.92Q329.86-33.92 331.65-33.41L331.65-33.41L331.65-33.41Q331.71-33.66 331.84-34.37L331.84-34.37L332.16-36.35L332.16-36.35Q332.42-37.63 332.80-39.74L332.80-39.74L333.82-44.80L346.56-46.08L339.46-8.96L339.46-8.96Q339.39-8.58 339.39-7.94L339.39-7.94L339.39-6.91L339.39-6.91Q339.39-5.50 340.10-4.45L340.10-4.45L340.10-4.45Q340.80-3.39 341.95-3.39L341.95-3.39L341.95-3.39Q340.67-0.38 336.77 0.90L336.77 0.90L336.77 0.90Q335.42 1.28 333.54 1.28L333.54 1.28L333.54 1.28Q331.65 1.28 329.92 0.29L329.92 0.29L329.92 0.29Q328.19-0.70 327.68-2.37L327.68-2.37L327.68-2.37Q326.66-0.70 324.61 0.29L324.61 0.29L324.61 0.29Q322.56 1.28 319.58 1.28L319.58 1.28L319.58 1.28Q316.61 1.28 314.14 0.51L314.14 0.51L314.14 0.51Q311.68-0.26 310.14-1.92L310.14-1.92L310.14-1.92Q307.33-5.18 307.33-12.61L307.33-12.61L307.33-12.61Q307.33-22.21 312.96-28.03L312.96-28.03L312.96-28.03Q318.59-33.92 327.55-33.92ZM327.10-30.08L327.10-30.08L327.10-30.08Q324.74-30.08 323.46-27.52L323.46-27.52L323.46-27.52Q322.18-24.96 320.86-18.62L320.86-18.62L320.86-18.62Q319.55-12.29 319.55-6.59L319.55-6.59L319.55-6.59Q319.55-2.69 321.86-2.69L321.86-2.69L321.86-2.69Q323.90-2.69 325.34-4.74L325.34-4.74L325.34-4.74Q326.78-6.78 327.36-10.18L327.36-10.18L330.82-28.93L330.82-28.93Q329.47-30.08 327.10-30.08ZM373.31-10.82L373.31-10.82L373.31-10.82Q374.91-9.73 374.91-7.33L374.91-7.33L374.91-7.33Q374.91-4.93 373.70-3.39L373.70-3.39L373.70-3.39Q372.48-1.86 370.50-0.83L370.50-0.83L370.50-0.83Q366.40 1.28 361.98 1.28L361.98 1.28L361.98 1.28Q357.57 1.28 354.98 0.32L354.98 0.32L354.98 0.32Q352.38-0.64 350.66-2.43L350.66-2.43L350.66-2.43Q347.26-5.82 347.26-12.03L347.26-12.03L347.26-12.03Q347.26-21.70 352.51-27.58L352.51-27.58L352.51-27.58Q358.14-33.92 367.94-33.92L367.94-33.92L367.94-33.92Q374.02-33.92 377.02-31.36L377.02-31.36L377.02-31.36Q379.26-29.44 379.26-26.30L379.26-26.30L379.26-26.30Q379.26-15.04 359.81-15.04L359.81-15.04L359.81-15.04Q359.55-13.38 359.55-11.97L359.55-11.97L359.55-11.97Q359.55-9.02 360.86-7.90L360.86-7.90L360.86-7.90Q362.18-6.78 364.61-6.78L364.61-6.78L364.61-6.78Q367.04-6.78 369.63-7.90L369.63-7.90L369.63-7.90Q372.22-9.02 373.31-10.82ZM360.26-17.79L360.26-17.79L360.26-17.79Q364.80-17.79 367.42-20.61L367.42-20.61L367.42-20.61Q370.05-23.30 370.05-27.58L370.05-27.58L370.05-27.58Q370.05-29.06 369.50-29.86L369.50-29.86L369.50-29.86Q368.96-30.66 367.87-30.66L367.87-30.66L367.87-30.66Q366.78-30.66 365.86-30.24L365.86-30.24L365.86-30.24Q364.93-29.82 363.97-28.42L363.97-28.42L363.97-28.42Q361.60-25.22 360.26-17.79ZM395.39 1.28L395.39 1.28L395.39 1.28Q381.31 1.28 381.31-11.97L381.31-11.97L381.31-11.97Q381.31-21.38 386.50-27.46L386.50-27.46L386.50-27.46Q392-33.92 401.54-33.92L401.54-33.92L401.54-33.92Q408.45-33.92 411.97-30.72L411.97-30.72L411.97-30.72Q415.49-27.52 415.49-20.80L415.49-20.80L415.49-20.80Q415.49-10.56 409.98-4.61L409.98-4.61L409.98-4.61Q404.61 1.28 395.39 1.28ZM397.06-26.56L397.06-26.56L397.06-26.56Q396.29-24.83 395.68-22.24L395.68-22.24L395.68-22.24Q395.07-19.65 394.30-15.55L394.30-15.55L394.30-15.55Q393.54-11.46 393.54-6.40L393.54-6.40L393.54-6.40Q393.54-4.74 394.08-3.65L394.08-3.65L394.08-3.65Q394.62-2.56 396.10-2.56L396.10-2.56L396.10-2.56Q397.57-2.56 398.50-3.26L398.50-3.26L398.50-3.26Q399.42-3.97 400.13-5.63L400.13-5.63L400.13-5.63Q401.41-8.58 402.43-14.05L402.43-14.05L402.43-14.05Q403.46-19.52 403.55-21.89L403.55-21.89L403.55-21.89Q403.65-24.26 403.65-26.02L403.65-26.02L403.65-26.02Q403.65-27.78 403.14-28.93L403.14-28.93L403.14-28.93Q402.62-30.08 401.18-30.08L401.18-30.08L401.18-30.08Q399.74-30.08 398.78-29.18L398.78-29.18L398.78-29.18Q397.82-28.29 397.06-26.56Z" fill="#eb6c6c"></path></g></g><style>text {
  font-size: 64px;
  font-family: Arial Black;
  dominant-baseline: central;
  text-anchor: middle;
}</style></svg>