<svg width="291.999951171875px" height="121.426220703125px" xmlns="http://www.w3.org/2000/svg" viewBox="104.0000244140625 14.286889648437501 291.999951171875 121.426220703125" style="background: rgba(0, 0, 0, 0);" preserveAspectRatio="xMidYMid"><defs><filter id="editing-extrude-glow"><feFlood flood-color="#333333" result="flood-1"></feFlood><feMorphology operator="erode" radius="1" in="SourceAlpha" result="erode"></feMorphology><feComposite operator="in" in="flood-1" in2="erode" result="comp1"></feComposite><feConvolveMatrix order="3,3" divisor="1" in="comp1" result="convolve" kernelMatrix="0 0 0 1 1 1 0 0 0"></feConvolveMatrix><feOffset dx="-3" dy="0" in="convolve" result="extrude"></feOffset><feComposite operator="in" in="flood-1" in2="extrude" result="comp-extrude"></feComposite><feFlood flood-color="#000000" result="flood-2"></feFlood><feComposite operator="in" in="flood-2" in2="SourceAlpha" result="comp2"></feComposite><feMorphology operator="dilate" radius="1" in="comp2" result="dilate"></feMorphology><feOffset dx="-4.5" dy="0" in="dilate" result="offset"></feOffset><feGaussianBlur in="offset" stdDeviation="5.8" result="blur"></feGaussianBlur><feComponentTransfer in="blur" result="shadow"><feFuncA type="linear" slope="0.8" intercept="-0.2"></feFuncA></feComponentTransfer><feMerge><feMergeNode in="shadow"></feMergeNode><feMergeNode in="comp-extrude"></feMergeNode><feMergeNode in="SourceGraphic"></feMergeNode></feMerge></filter></defs><g filter="url(#editing-extrude-glow)"><g transform="translate(150.41499784588814, 98.21906280517578)"><path d="M26.11-42.69L26.11-42.69L26.11-42.69Q41.79-42.69 41.79-31.62L41.79-31.62L41.79-31.62Q41.79-25.54 37.89-21.89L37.89-21.89L37.89-21.89Q34.05-18.24 27.33-18.24L27.33-18.24L27.33-18.24Q24.19-18.24 21.76-20.03L21.76-20.03L21.76-20.03Q20.61-20.80 19.84-21.82L19.84-21.82L19.84-21.82Q24.51-21.82 26.98-24.67L26.98-24.67L26.98-24.67Q29.44-27.52 29.44-33.09L29.44-33.09L29.44-33.09Q29.44-38.66 23.94-38.66L23.94-38.66L22.40-38.66L22.40-38.66Q22.02-38.66 21.70-38.59L21.70-38.59L14.34 0L0.45 0L8.32-41.92L8.32-41.92Q15.17-42.56 19.14-42.62L19.14-42.62L19.14-42.62Q23.10-42.69 26.11-42.69ZM57.41-3.52L57.41-3.52L57.41-3.52Q55.42 1.28 49.09 1.28L49.09 1.28L49.09 1.28Q45.89 1.28 43.84-0.96L43.84-0.96L43.84-0.96Q42.18-2.82 42.18-4.93L42.18-4.93L42.18-4.93Q42.18-9.73 44.42-20.22L44.42-20.22L49.09-44.80L62.08-46.08L55.87-13.70L55.87-13.70Q54.78-8.96 54.78-7.30L54.78-7.30L54.78-7.30Q54.78-3.65 57.41-3.52ZM65.63-1.92L65.63-1.92L65.63-1.92Q64.13-3.58 63.46-6.21L63.46-6.21L63.46-6.21Q62.78-8.83 62.78-13.12L62.78-13.12L62.78-13.12Q62.78-17.41 64.26-21.31L64.26-21.31L64.26-21.31Q65.73-25.22 68.42-28.03L68.42-28.03L68.42-28.03Q73.92-33.92 83.01-33.92L83.01-33.92L83.01-33.92Q86.27-33.92 88.64-32.83L88.64-32.83L99.58-33.92L94.85-8.96L94.85-8.96Q94.66-8.19 94.66-6.78L94.66-6.78L94.66-6.78Q94.66-5.38 95.52-4.48L95.52-4.48L95.52-4.48Q96.38-3.58 97.66-3.46L97.66-3.46L97.66-3.46Q97.02-1.28 94.69 0L94.69 0L94.69 0Q92.35 1.28 89.73 1.28L89.73 1.28L89.73 1.28Q87.10 1.28 85.34 0.29L85.34 0.29L85.34 0.29Q83.58-0.70 83.07-2.37L83.07-2.37L83.07-2.37Q82.05-0.77 79.87 0.26L79.87 0.26L79.87 0.26Q77.70 1.28 74.78 1.28L74.78 1.28L74.78 1.28Q71.87 1.28 69.50 0.51L69.50 0.51L69.50 0.51Q67.14-0.26 65.63-1.92ZM79.14-27.90L79.14-27.90L79.14-27.90Q78.40-26.75 77.76-24.80L77.76-24.80L77.76-24.80Q77.12-22.85 76.06-17.63L76.06-17.63L76.06-17.63Q75.01-12.42 75.01-8.70L75.01-8.70L75.01-8.70Q75.01-4.99 75.58-3.90L75.58-3.90L75.58-3.90Q76.16-2.82 77.18-2.82L77.18-2.82L77.18-2.82Q79.23-2.82 80.74-4.77L80.74-4.77L80.74-4.77Q82.24-6.72 82.82-10.18L82.82-10.18L86.21-28.93L86.21-28.93Q84.86-30.08 83.30-30.08L83.30-30.08L83.30-30.08Q81.73-30.08 80.80-29.57L80.80-29.57L80.80-29.57Q79.87-29.06 79.14-27.90ZM134.21-26.62L134.21-26.62L134.21-26.62Q134.21-23.94 131.97-22.27L131.97-22.27L131.97-22.27Q129.73-20.61 126.08-20.61L126.08-20.61L126.08-20.61Q124.54-20.61 123.65-21.06L123.65-21.06L123.65-21.06Q124.35-22.72 124.58-24.80L124.58-24.80L124.58-24.80Q124.80-26.88 124.80-27.46L124.80-27.46L124.80-27.46Q124.80-30.14 122.94-30.14L122.94-30.14L122.94-30.14Q121.66-30.14 120.22-28.54L120.22-28.54L120.22-28.54Q118.78-26.94 117.57-24.45L117.57-24.45L117.57-24.45Q114.88-18.69 114.88-12.86L114.88-12.86L114.88-12.86Q114.88-9.66 116.10-8.22L116.10-8.22L116.10-8.22Q117.31-6.78 120-6.78L120-6.78L120-6.78Q123.71-6.78 126.66-9.86L126.66-9.86L126.66-9.86Q127.49-10.82 127.94-11.90L127.94-11.90L127.94-11.90Q130.37-10.62 130.37-7.10L130.37-7.10L130.37-7.10Q130.37-3.52 126.40-1.15L126.40-1.15L126.40-1.15Q122.30 1.28 115.78 1.28L115.78 1.28L115.78 1.28Q102.78 1.28 102.78-12.48L102.78-12.48L102.78-12.48Q102.78-22.53 108.48-28.29L108.48-28.29L108.48-28.29Q113.98-33.92 124.10-33.92L124.10-33.92L124.10-33.92Q134.21-33.92 134.21-26.62ZM161.86-10.82L161.86-10.82L161.86-10.82Q163.46-9.73 163.46-7.33L163.46-7.33L163.46-7.33Q163.46-4.93 162.24-3.39L162.24-3.39L162.24-3.39Q161.02-1.86 159.04-0.83L159.04-0.83L159.04-0.83Q154.94 1.28 150.53 1.28L150.53 1.28L150.53 1.28Q146.11 1.28 143.52 0.32L143.52 0.32L143.52 0.32Q140.93-0.64 139.20-2.43L139.20-2.43L139.20-2.43Q135.81-5.82 135.81-12.03L135.81-12.03L135.81-12.03Q135.81-21.70 141.06-27.58L141.06-27.58L141.06-27.58Q146.69-33.92 156.48-33.92L156.48-33.92L156.48-33.92Q162.56-33.92 165.57-31.36L165.57-31.36L165.57-31.36Q167.81-29.44 167.81-26.30L167.81-26.30L167.81-26.30Q167.81-15.04 148.35-15.04L148.35-15.04L148.35-15.04Q148.10-13.38 148.10-11.97L148.10-11.97L148.10-11.97Q148.10-9.02 149.41-7.90L149.41-7.90L149.41-7.90Q150.72-6.78 153.15-6.78L153.15-6.78L153.15-6.78Q155.58-6.78 158.18-7.90L158.18-7.90L158.18-7.90Q160.77-9.02 161.86-10.82ZM148.80-17.79L148.80-17.79L148.80-17.79Q153.34-17.79 155.97-20.61L155.97-20.61L155.97-20.61Q158.59-23.30 158.59-27.58L158.59-27.58L158.59-27.58Q158.59-29.06 158.05-29.86L158.05-29.86L158.05-29.86Q157.50-30.66 156.42-30.66L156.42-30.66L156.42-30.66Q155.33-30.66 154.40-30.24L154.40-30.24L154.40-30.24Q153.47-29.82 152.51-28.42L152.51-28.42L152.51-28.42Q150.14-25.22 148.80-17.79ZM189.12-22.46L189.12-22.46L189.12-22.46Q190.02-24.83 190.02-26.88L190.02-26.88L190.02-26.88Q190.02-30.66 186.94-30.66L186.94-30.66L186.94-30.66Q185.34-30.66 184.03-29.22L184.03-29.22L184.03-29.22Q182.72-27.78 182.72-25.98L182.72-25.98L182.72-25.98Q182.72-24.70 183.74-23.68L183.74-23.68L183.74-23.68Q185.22-22.27 188.99-19.97L188.99-19.97L188.99-19.97Q192.77-17.66 194.21-15.78L194.21-15.78L194.21-15.78Q195.65-13.89 195.65-11.30L195.65-11.30L195.65-11.30Q195.65-8.70 194.40-6.34L194.40-6.34L194.40-6.34Q193.15-3.97 190.91-2.30L190.91-2.30L190.91-2.30Q186.11 1.28 178.43 1.28L178.43 1.28L178.43 1.28Q174.27 1.28 171.07-0.90L171.07-0.90L171.07-0.90Q167.87-3.01 167.87-5.50L167.87-5.50L167.87-5.50Q167.87-8 169.70-9.47L169.70-9.47L169.70-9.47Q171.52-10.94 174.21-10.94L174.21-10.94L174.21-10.94Q176.90-10.94 178.56-9.92L178.56-9.92L178.56-9.92Q177.73-7.81 177.73-6.40L177.73-6.40L177.73-6.40Q177.73-2.18 181.31-2.18L181.31-2.18L181.31-2.18Q182.85-2.18 183.87-3.14L183.87-3.14L183.87-3.14Q184.90-4.10 184.90-5.76L184.90-5.76L184.90-5.76Q184.90-9.02 179.39-12.48L179.39-12.48L179.39-12.48Q174.91-15.42 173.89-16.58L173.89-16.58L173.89-16.58Q172.16-18.62 172.16-21.18L172.16-21.18L172.16-21.18Q172.16-23.74 173.38-26.18L173.38-26.18L173.38-26.18Q174.59-28.61 176.83-30.34L176.83-30.34L176.83-30.34Q181.50-33.92 189.63-33.92L189.63-33.92L189.63-33.92Q193.79-33.92 196.26-32.26L196.26-32.26L196.26-32.26Q198.72-30.59 198.72-27.78L198.72-27.78L198.72-27.78Q198.72-24.96 197.02-23.36L197.02-23.36L197.02-23.36Q195.33-21.76 192.26-21.76L192.26-21.76L192.26-21.76Q190.14-21.76 189.12-22.46Z" fill="#eb6c6c"></path></g></g><style>text {
  font-size: 64px;
  font-family: Arial Black;
  dominant-baseline: central;
  text-anchor: middle;
}</style></svg>